<?xml version="1.0" encoding="UTF-8" standalone="no"?>
<!DOCTYPE svg PUBLIC "-//W3C//DTD SVG 1.1//EN" "http://www.w3.org/Graphics/SVG/1.1/DTD/svg11.dtd">
<svg width="100%" height="100%" viewBox="0 0 1200 1200" version="1.1" xmlns="http://www.w3.org/2000/svg" xmlns:xlink="http://www.w3.org/1999/xlink" xml:space="preserve" xmlns:serif="http://www.serif.com/" style="fill-rule:evenodd;clip-rule:evenodd;stroke-linecap:round;stroke-linejoin:round;stroke-miterlimit:1.5;">
    <g id="RA" transform="matrix(1.9106,0,0,1.9106,-1299.64,-857.916)">
        <g transform="matrix(0.578156,0,0,0.580376,683.716,352.62)">
            <circle cx="537.142" cy="707.212" r="489.977" style="fill:none;stroke:white;stroke-width:25.3px;"/>
        </g>
        <g transform="matrix(0.885214,0,0,0.843492,704.515,509.757)">
            <path d="M387.524,260.581C386.655,262.253 384.964,263.389 383.023,263.389L378.279,260.044L377.955,258.807L378.123,256.438L378.51,255.464C378.528,255.428 378.631,255.233 378.804,254.909C380.26,252.177 387.589,238.492 387.866,237.917C389.849,233.801 391.945,229.729 394.068,225.682C400.368,213.672 405.944,201.289 413.179,189.78C437.034,151.834 471.99,115.215 520.632,115.215C523.46,115.215 525.756,117.624 525.756,120.592C525.756,123.561 523.46,125.97 520.632,125.97C475.642,125.97 443.797,160.606 421.734,195.703C414.65,206.972 409.214,219.11 403.046,230.869C400.981,234.805 398.941,238.766 397.012,242.77C396.729,243.358 389.238,257.365 387.748,260.16C387.627,260.386 387.524,260.581 387.524,260.581Z" style="fill:white;"/>
            <path d="M515.073,123.764C514.971,123.34 514.916,122.897 514.916,122.44L515.344,120.06L516.341,118.472L517.556,117.482L518.992,116.917L520.663,116.837L522.344,117.365L523.741,118.439L524.61,119.706L525.157,121.529C525.278,122.385 525.595,126.736 525.677,127.475C526.24,132.538 525.877,138.325 523.962,143.108C522.287,147.29 516.813,152.495 512.13,157.662C510.694,159.245 509.362,160.831 508.413,162.415C507.807,163.426 507.06,164.296 507.506,165.225C509.738,169.876 513.059,175.486 514.366,181.089C515.496,185.931 515.28,190.776 512.741,195.316C511.432,197.656 508.022,200.804 504.771,203.877C503.766,204.828 502.526,206.252 501.704,207.228C502.074,207.637 502.468,208.062 502.768,208.361C503.789,209.382 504.668,210.323 505.122,210.974C510.001,217.967 511.554,226.779 507.715,234.674C505.368,239.501 500.931,242.615 496.468,245.534C493.814,247.271 490.995,248.731 489.986,251.661C489.044,254.398 489.382,257.277 489.656,260.18C490.06,264.456 490.486,268.78 489.591,273.002C486.949,285.47 480.156,293.763 471.486,297.363C462.943,300.909 452.315,299.954 441.526,293.098C439.106,291.561 438.332,288.251 439.796,285.712C441.261,283.174 444.415,282.36 446.834,283.898C454.378,288.692 461.742,289.841 467.716,287.361C473.562,284.935 477.806,279.074 479.587,270.668C480.245,267.564 479.755,264.385 479.458,261.241C479.031,256.723 478.881,252.266 480.347,248.007C481.835,243.685 484.975,240.59 488.748,237.95C490.809,236.509 493.061,235.193 495.075,233.653C496.486,232.574 497.798,231.406 498.587,229.785C500.612,225.619 499.428,221.018 496.853,217.328C496.14,216.306 493.846,214.411 492.593,212.715L491.123,210.063L490.713,208.379L490.682,206.935C490.864,204.739 492.157,202.032 494.453,199.41C496.449,197.13 499.245,194.701 501.529,192.494C502.541,191.515 503.462,190.659 503.902,189.872C505.372,187.243 504.771,184.379 503.813,181.594C502.398,177.483 500.001,173.498 498.353,170.064C495.874,164.901 497.633,158.981 502.081,153.329C504.8,149.874 508.459,146.409 511.361,143.197C512.749,141.66 513.981,140.272 514.514,138.941C515.764,135.819 515.865,132.026 515.498,128.72C515.438,128.182 515.185,125.125 515.073,123.764ZM524.069,125.763C524.645,125.092 525.165,124.047 525.165,122.44C525.165,123.694 524.755,124.848 524.069,125.763Z" style="fill:white;"/>
            <path d="M398.219,333.129C398.209,332.647 398.139,328.27 398.78,326.636L400.184,324.397L402.045,323.064L403.544,322.637L404.99,322.641L407.615,323.499C410.363,324.817 416.139,328.856 418.774,330.099C425.598,333.318 432.475,332.389 438.264,327.517C444.961,321.88 445.01,311.309 443.992,303.227C443.641,300.44 443.456,297.764 442.336,295.153C442.156,294.735 441.207,292.8 440.88,292.134C440.245,291.238 439.87,290.13 439.87,288.929L439.986,287.786L440.441,286.453L441.184,285.321L441.982,284.565L444.033,283.63L445.877,283.612L447.529,284.231L449.049,285.597C449.41,286.072 451.311,289.874 451.682,290.739C453.224,294.336 453.668,297.978 454.152,301.817C455.597,313.287 454.18,327.907 444.676,335.907C435.735,343.433 425.114,344.882 414.572,339.91C413.238,339.28 410.609,337.736 408.219,336.289C407.709,340.668 406.587,345.507 404.798,349.273C402.936,353.189 399.914,356.335 396.947,359.431C390.28,366.387 384.29,369.543 378.622,370.093C370.329,370.897 362.144,366.001 352.561,356.424C350.513,354.377 350.433,350.971 352.383,348.821C354.334,346.672 357.58,346.588 359.628,348.635C366.455,355.457 371.772,359.955 377.68,359.383C381.478,359.014 385.253,356.465 389.721,351.804C391.898,349.532 394.26,347.347 395.626,344.473C397.19,341.183 397.972,336.758 398.219,333.129ZM443.662,294.123C444.403,294.349 445.085,294.357 445.69,294.258C445.463,294.29 445.23,294.307 444.994,294.307C444.534,294.307 444.087,294.243 443.662,294.123ZM447.758,293.458C448.348,293.074 448.885,292.545 449.318,291.815C448.918,292.474 448.384,293.035 447.758,293.458ZM449.872,290.58C450.01,290.142 450.118,289.598 450.118,288.929C450.118,289.505 450.032,290.06 449.872,290.58Z" style="fill:white;"/>
            <path d="M298.53,330.781C297.697,331.396 296.681,331.758 295.586,331.758L294.37,331.616L293.234,331.195L291.758,330.054L290.823,328.601L290.365,326.732L290.44,325.352L290.917,323.887L291.865,322.519L292.946,321.639C294.181,320.866 306.149,316.861 307.506,316.431C310.231,315.567 312.906,314.652 315.524,313.483C323.469,309.934 330.038,304.522 337.269,299.797C349.937,291.519 366.878,271.37 376.251,259.281C380.402,253.927 388.222,236.294 391.488,231.245C393.076,228.789 396.265,228.148 398.605,229.815C400.945,231.482 401.556,234.829 399.967,237.285C396.608,242.479 388.47,260.562 384.2,266.069C374.252,278.901 356.132,300.141 342.686,308.928C335.005,313.947 327.977,319.61 319.537,323.379C316.575,324.702 313.552,325.75 310.468,326.727C309.44,327.053 301.539,329.603 298.53,330.781ZM298.749,322.15C298.113,321.567 297.125,321.002 295.586,321.002C296.779,321.002 297.878,321.431 298.749,322.15Z" style="fill:white;"/>
            <path d="M287.933,275.299L290.752,276.044C292.611,275.934 294.458,276.003 296.324,276.033C301.924,276.123 307.326,275.672 312.854,274.822C323.068,273.252 333.621,269.762 343.022,264.818C335.447,263.394 328.255,259.171 323.719,252.918L322.524,251.986L321.635,250.71L321.195,249.561L321.004,248.195L321.164,246.717L321.716,245.298L322.595,244.115L323.667,243.269L325.868,242.555L327.288,242.627L328.509,243.074C331.389,243.012 335.88,242.755 337.697,241.893C342.806,239.469 348.815,236.286 353.472,232.097C352.9,231.818 352.344,231.504 351.81,231.159C345.646,227.184 342.539,220.62 340.441,213.898C340.201,213.128 339.064,209.602 339.015,207.792L339.109,206.341L339.505,204.93L340.788,202.997C342.843,200.958 346.089,201.054 348.032,203.21C349.172,204.476 349.612,206.171 349.366,207.768C349.59,208.54 350.085,210.242 350.181,210.551C351.54,214.907 353.181,219.42 357.175,221.995C357.913,222.471 358.762,222.855 359.636,222.806C360.069,222.606 361.507,221.947 362.01,221.783L363.318,221.506L364.461,221.525L365.81,221.891L366.936,222.55L367.853,223.453L368.554,224.597L368.916,225.661L369.066,227.037L368.868,228.48L368.425,229.651C363.435,239.71 351.603,247.099 341.919,251.693C341.27,252.001 340.381,252.275 339.348,252.516C342.829,254.163 346.767,254.878 350.513,254.502C353.372,254.215 356.273,253.342 358.988,252.438C360.227,252.025 361.518,251.606 362.689,251.021L363.876,250.565L366.005,250.5L367.126,250.858L368.151,251.481L369.314,252.753L370.071,254.546L370.16,256.539L369.623,258.29C368.606,260.325 366.611,262.417 364.156,264.239C361.52,266.195 358.34,267.924 356.426,269.203C344.139,277.419 328.93,283.221 314.339,285.464C308.262,286.399 302.324,286.886 296.167,286.787C294.384,286.758 292.621,286.663 290.839,286.818L289.472,286.754C288.737,286.631 285.922,285.927 284.612,285.507L283.285,284.975L282.112,284.139L281.206,283.016L280.537,281.35L280.403,280.023L280.623,278.558L281.356,276.994L282.665,275.655L283.898,275.014L285.622,274.722C286.453,274.722 287.238,274.93 287.933,275.299ZM288.969,284.17C288.071,284.984 286.901,285.477 285.622,285.477C287.335,285.477 288.361,284.792 288.969,284.17Z" style="fill:white;"/>
            <path d="M364.337,191.296C363.919,191.187 363.508,191.05 363.106,190.879C360.069,189.59 357.488,186.823 355.879,183.467C354.365,180.308 353.741,176.693 354.103,173.727C354.498,170.497 356.103,167.791 358.455,165.574C360.844,163.321 364.116,161.619 366.636,160.127C371.805,157.065 377.859,152.146 380.715,146.818C382.636,143.234 382.44,138.703 381.078,134.934C380.228,132.581 378.764,129.761 378.148,127.001C377.479,124.005 377.63,121.055 379.013,118.35C380.613,115.222 383.752,112.846 387.657,111.224C391.601,109.586 396.415,108.699 399.459,107.335C410.254,102.497 417.86,91.402 416.673,79.442C416.38,76.49 418.426,73.844 421.239,73.536C424.052,73.229 426.574,75.376 426.867,78.328C428.509,94.881 418.423,110.531 403.484,117.226C400.808,118.426 396.845,119.312 393.187,120.565C391.81,121.037 390.481,121.561 389.373,122.251C388.825,122.592 388.308,122.919 388.043,123.437C387.908,123.7 388.021,123.991 388.072,124.281C388.192,124.956 388.426,125.633 388.681,126.303C389.329,128.004 390.131,129.656 390.661,131.121C393.066,137.777 393.04,145.761 389.647,152.091C385.961,158.968 378.345,165.542 371.673,169.494C369.979,170.497 367.829,171.556 366.049,172.941C365.258,173.557 364.388,174.114 364.269,175.094C364.136,176.18 364.48,177.477 365.035,178.633C365.495,179.593 366.08,180.539 366.949,180.908C367.553,181.165 368.221,180.997 368.88,180.921C369.922,180.8 370.962,180.619 371.954,180.526C372.554,180.469 373.76,180.445 373.76,180.445L369.984,182.671L374.093,185.396L378.432,188.258L378.173,188.689C376.931,190.757 373.852,195.814 372.499,197.812C369.626,202.058 363.58,208.45 357.138,211.517C351.757,214.079 346.142,214.404 341.294,211.164C338.909,209.569 338.205,206.242 339.725,203.739C341.244,201.235 344.414,200.497 346.8,202.092C348.67,203.342 350.828,202.711 352.904,201.722C357.64,199.468 362.032,194.705 364.144,191.584C364.204,191.495 364.269,191.398 364.337,191.296Z" style="fill:white;"/>
            <path d="M312.64,93.118C311.848,93.644 310.91,93.949 309.904,93.949C307.076,93.949 304.78,91.539 304.78,88.571L305.202,86.413L306.346,84.652L307.841,83.533C308.248,83.317 308.89,83.047 309.761,82.794C317.053,80.673 353.55,76.202 354.361,76.175C361.551,75.929 368.955,76.378 376.075,77.416C394.145,80.052 403.796,77.304 420.532,73.12C423.283,72.432 426.049,74.218 426.704,77.105C427.36,79.993 425.658,82.895 422.907,83.583C404.751,88.122 394.267,90.929 374.664,88.07C368.116,87.114 361.307,86.698 354.695,86.924C353.933,86.951 319.853,91.096 312.64,93.118ZM314.939,89.576C315.001,89.237 315.029,88.901 315.029,88.571C315.029,88.915 314.998,89.251 314.939,89.576Z" style="fill:white;"/>
            <path d="M365.555,87.107C364.269,87.058 355.44,86.743 350.274,87.194C347.028,87.477 338.11,88.552 334.879,88.901C325.971,89.864 316.528,91.4 308.084,94.45C280.293,104.489 257.978,116.669 241.659,142.389C234.825,153.158 228.543,164.113 224.785,176.393C221.253,187.935 219.864,199.47 219.438,211.471C218.77,230.337 219.469,254.339 225.708,275.482C231.631,295.556 242.579,313.095 262.797,320.168C268.977,322.33 279.082,324.06 287.398,322.239C290.167,321.633 292.883,323.5 293.461,326.406C294.038,329.311 292.26,332.162 289.491,332.768C279.375,334.983 267.074,333.002 259.555,330.372C235.99,322.127 222.822,302.061 215.918,278.663C209.329,256.334 208.491,230.996 209.197,211.071C209.657,198.079 211.204,185.6 215.027,173.104C219.076,159.874 225.766,148.029 233.128,136.427C250.774,108.617 274.699,95.135 304.748,84.28C313.915,80.968 324.158,79.247 333.829,78.202C337.102,77.848 346.137,76.762 349.425,76.475C355.736,75.925 365.191,76.225 366.878,76.427L368.795,76.989L369.89,77.751L371.026,79.219L371.617,81.075L371.645,82.318L371.413,83.499L370.911,84.639L370.075,85.723C368.826,86.972 367.13,87.429 365.555,87.107ZM362.604,85.273C362.099,84.638 361.756,83.912 361.573,83.152C361.733,83.841 362.035,84.575 362.604,85.273ZM361.432,82.248C361.318,80.692 361.846,79.096 363.005,77.937C361.633,79.309 361.309,80.829 361.432,82.248Z" style="fill:white;"/>
            <path d="M281.519,333.909C280.18,334.455 278.632,334.412 277.264,333.653C274.764,332.265 273.807,329.008 275.13,326.385L276.607,324.57L278.723,323.533C280.687,322.989 289.73,322.072 292.958,321.265C304.629,318.347 314.694,314.799 324.901,308.34C327.323,306.807 330.475,307.626 331.935,310.168C333.396,312.709 332.615,316.017 330.193,317.55C319.046,324.604 308.078,328.541 295.333,331.728C292.402,332.46 282.944,333.721 281.519,333.909Z" style="fill:white;"/>
            <path d="M354.694,355.226C353.648,355.975 350.116,358.497 349.002,359.205C343.861,362.47 338.436,365.305 332.855,367.736C317.213,374.552 298.312,374.04 281.678,371.668C257.552,368.229 232.286,360.633 214.945,342.208C205.575,332.252 200.916,321.068 195.547,308.817C192.032,300.796 182.197,278.05 180.739,269.367C180.248,266.444 182.11,263.653 184.896,263.137C187.681,262.622 190.341,264.577 190.832,267.5C192.196,275.621 201.57,296.821 204.858,304.323C209.716,315.409 213.758,325.641 222.237,334.65C237.999,351.396 261.129,357.884 283.058,361.011C297.959,363.135 314.912,363.909 328.925,357.803C334.03,355.579 338.994,352.99 343.696,350.003C345.425,348.905 350.307,345.356 351.249,345.025L353.488,344.751L354.863,345.098L356.005,345.75L356.982,346.717L357.693,347.926L358.144,350.143C358.144,352.495 356.701,354.497 354.694,355.226ZM350.547,354.853C348.967,353.937 347.896,352.17 347.896,350.143C347.896,352.476 348.859,353.986 350.547,354.853Z" style="fill:white;"/>
            <path d="M197.704,286.782C199.01,289.414 198.034,292.664 195.525,294.035C193.017,295.406 189.92,294.381 188.614,291.748C179.466,273.309 175.674,245.092 169.558,225.606C166.879,217.071 163.89,207.161 157.299,200.772C152.054,195.687 145.077,193.399 138.301,191.139C133.201,189.438 127.972,188.184 122.583,188.184C119.755,188.184 117.459,185.775 117.459,182.807C117.459,179.839 119.755,177.429 122.583,177.429C129.033,177.429 135.303,178.853 141.406,180.889C149.608,183.625 157.904,186.716 164.254,192.871C172.111,200.488 176.098,212.066 179.292,222.241C185.255,241.239 188.785,268.804 197.704,286.782Z" style="fill:white;"/>
            <path d="M123.179,190.339C120.433,190.24 118.233,187.87 118.233,184.964C118.233,181.996 120.529,179.587 123.357,179.587C127.734,179.587 131.818,182.915 134.496,188.919C138.741,198.435 140.074,215.037 139.606,219.971C135.983,258.12 118.834,292.378 116.802,330.895C115.83,349.33 117.322,363.464 121.924,375.603C128.876,393.94 142.849,407.611 165.095,424.852C174.418,432.078 215.708,448.983 222.917,450.637C225.68,451.271 227.432,454.14 226.828,457.039C226.224,459.939 223.491,461.778 220.728,461.144C213.028,459.377 168.965,441.223 159.007,433.504C134.805,414.748 119.965,399.528 112.401,379.579C107.326,366.193 105.497,350.629 106.569,330.301C108.61,291.624 125.769,257.211 129.408,218.904C129.74,215.405 128.912,204.821 126.475,196.907C125.895,195.026 125.231,193.305 124.43,191.929C124.168,191.479 123.896,191.073 123.6,190.733C123.484,190.6 123.274,190.419 123.179,190.339Z" style="fill:white;"/>
            <path d="M210.094,398.275C209.747,397.55 209.551,396.731 209.551,395.864L209.732,394.436L210.343,392.977L211.147,391.947L212.004,391.257L213.777,390.549L215.529,390.539L216.982,391.037L218.089,391.824L219.32,393.534C219.624,394.187 221.169,399.273 221.326,400.199C222.041,404.427 222.597,408.712 223.003,412.981C224.145,424.965 224.449,436.89 224.449,448.922C224.449,485.745 223.699,521.97 216.16,558.099C215.555,560.998 212.821,562.836 210.059,562.202C207.296,561.567 205.544,558.697 206.149,555.798C213.528,520.432 214.2,484.967 214.2,448.922C214.2,437.248 213.913,425.678 212.806,414.051C212.425,410.053 211.905,406.04 211.235,402.08C211.159,401.632 210.337,399.036 210.094,398.275ZM215.495,401.173C216.988,400.991 218.52,400.225 219.382,397.992C218.7,399.65 217.245,400.878 215.495,401.173ZM219.694,396.955C219.754,396.656 219.799,396.294 219.799,395.864C219.799,396.238 219.763,396.603 219.694,396.955Z" style="fill:white;"/>
            <path d="M323.599,451.375C323.534,451.048 322.419,445.425 322.308,444.389L322.316,442.864L322.867,441.07L323.657,439.907L324.658,439.037L326.413,438.303L328.31,438.287L329.54,438.693L330.772,439.53L331.569,440.426C332.633,441.798 337.838,448.775 338.285,449.273C340.511,451.751 343.684,455.085 347.26,457.407C349.84,459.084 352.617,460.44 355.322,459.385C357.478,458.544 358.959,456.348 360.137,453.71C361.698,450.215 362.579,445.89 362.862,441.492C363.204,436.161 362.667,430.703 361.176,426.417C360.412,424.223 359.458,422.347 358.077,421.242C355.827,419.442 355.393,416.065 357.108,413.705C358.822,411.344 362.041,410.889 364.29,412.688C367.034,414.883 369.285,418.368 370.802,422.728C372.731,428.271 373.529,435.318 373.087,442.214C372.636,449.241 370.886,456.085 367.98,461.096C365.646,465.119 362.557,468.038 358.892,469.467C354.247,471.278 349.377,470.536 344.786,468.235C340.771,466.223 336.978,462.974 333.93,459.929C333.794,462.199 333.541,464.455 333.174,466.655C331.39,477.36 326.828,484.945 320.627,489.86C311.578,497.032 298.709,498.551 284.855,494.718C270.275,490.685 259.405,480.314 250.577,467.8C242.345,456.131 235.901,442.612 229.536,431.401C225.396,424.109 221.992,416.415 218.1,408.989C216.842,406.589 215.5,404.238 214.218,401.852C214.153,401.73 213.506,400.67 213.101,400.008C211.965,399.021 211.242,397.53 211.242,395.864L211.732,393.522L212.866,391.869L214.681,390.701L215.86,390.418L217.308,390.468L218.869,391.032L220.141,392.013C220.886,392.773 222.951,396.207 223.147,396.572C224.445,398.99 225.805,401.374 227.08,403.806C230.915,411.124 234.261,418.71 238.34,425.895C244.545,436.823 250.789,450.025 258.813,461.4C266.242,471.93 275.198,480.924 287.467,484.318C297.891,487.201 307.642,486.673 314.451,481.277C318.82,477.814 321.822,472.345 323.079,464.801C323.807,460.431 323.991,455.791 323.599,451.375ZM221.091,397.948C221.32,397.403 221.49,396.722 221.49,395.864C221.49,396.603 221.348,397.307 221.091,397.948Z" style="fill:white;"/>
            <path d="M405.258,406.556C405.09,406.117 404.302,404.03 404.131,403.176L403.98,401.482L404.28,399.704L405.143,398.004L406.654,396.582L407.996,395.961L409.681,395.711L412.01,396.211L413.273,396.923C413.67,397.199 414.108,397.555 414.568,397.989C416.966,400.254 420.723,406.01 421.799,407.11C425.465,410.856 429.229,414.181 432.999,416.202C435.823,417.717 438.598,418.526 441.274,417.553C443.773,416.644 446.014,414.327 448.226,410.538C450,407.498 450.97,403.954 451.904,400.584C453.338,395.411 454.009,390.166 454.208,384.815C454.319,381.849 456.703,379.535 459.529,379.651C462.355,379.768 464.56,382.27 464.449,385.236C464.217,391.465 463.414,397.566 461.745,403.588C460.561,407.859 459.214,412.303 456.965,416.156C451.782,425.037 445.767,428.393 439.767,428.701C432.026,429.097 423.577,423.647 415.759,415.93C415.591,421.792 415.296,431.668 412.566,439.346C410.208,445.977 406.098,451.029 399.777,452.57C391.615,454.559 384.627,451.465 378.845,446.214C373.932,441.752 369.946,435.691 366.887,430.837C365.057,427.933 363.137,425.136 360.967,422.469C360.619,422.04 359.884,421.038 359.302,420.237C357.493,419.407 356.228,417.511 356.228,415.308L356.364,413.946L356.838,412.552L358.291,410.699L359.329,410.033L360.461,409.64L361.713,409.526L363.113,409.77L364.438,410.403L365.768,411.535C366.646,412.467 368.021,414.574 368.762,415.485C371.205,418.489 373.374,421.633 375.435,424.904C378.043,429.042 381.363,434.277 385.551,438.081C388.87,441.095 392.774,443.235 397.458,442.093C400.378,441.382 401.875,438.649 402.964,435.586C405.345,428.89 405.382,420.213 405.525,415.247C405.609,412.347 405.539,409.445 405.258,406.556Z" style="fill:white;"/>
            <path d="M457.413,384.705C456.03,383.741 455.118,382.092 455.118,380.221L455.524,378.103L456.851,376.158L458.279,375.214L460.289,374.791L461.708,375.002L463.108,375.664C463.631,376.012 465.134,377.653 465.405,377.945C466.443,379.066 467.538,380.143 468.644,381.196C471.643,384.054 475.279,386.333 478.91,388.291C482.933,390.462 489.999,392.863 496.065,392.838C498.644,392.827 501.07,392.551 502.516,390.916C503.307,390.02 503.616,388.701 503.616,386.97C503.616,379.995 499.933,374.565 494.862,370.218C486.015,362.634 473.016,358.255 463.522,355.883C429.696,347.431 394.128,367.308 365.96,385.734C355.35,392.674 340.026,409.079 329.58,416.179C327.206,417.792 324.03,417.079 322.493,414.588C320.956,412.097 321.635,408.764 324.009,407.151C334.495,400.024 349.889,383.573 360.539,376.606C390.881,356.759 429.458,336.316 465.895,345.42C476.662,348.11 491.313,353.288 501.345,361.888C508.86,368.331 513.864,376.634 513.864,386.97C513.864,392.006 512.332,395.626 510.029,398.231C507.771,400.786 504.657,402.407 501.002,403.131C492.449,404.826 480.479,401.231 474.225,397.857C469.801,395.471 465.407,392.64 461.754,389.159C460.491,387.955 459.243,386.724 458.057,385.443C457.987,385.368 457.667,384.998 457.413,384.705ZM464.315,383.484C464.891,382.738 465.367,381.707 465.367,380.221C465.367,381.448 464.975,382.579 464.315,383.484Z" style="fill:white;"/>
            <path d="M344.544,389.08C344.908,388.731 345.327,388.432 345.795,388.198L347.648,387.688L349.113,387.804L350.756,388.52L351.874,389.534L352.74,391.015L353.086,392.41L352.941,394.473L352.3,395.975L351.433,397.045C351.39,397.085 351.13,397.323 350.688,397.721C346.88,401.147 327.525,418.472 325.447,420.252C317.176,427.337 310.036,435.253 300.486,440.738C272.511,456.802 248.116,466.782 216.549,459.135C213.793,458.468 212.072,455.578 212.709,452.686C213.345,449.794 216.098,447.988 218.854,448.655C247.743,455.654 269.965,446.004 295.567,431.302C304.551,426.143 311.185,418.586 318.966,411.92C321.028,410.153 340.238,392.956 344.017,389.555C344.248,389.347 344.453,389.163 344.544,389.08Z" style="fill:white;"/>
            <path d="M144.592,232.695C144.503,232.299 144.456,231.885 144.456,231.46L144.917,228.816L145.55,227.626L146.33,226.724L147.619,225.84L149.17,225.374L150.851,225.434L152.482,226.068L154.125,227.503C154.544,228.01 155.074,228.822 155.595,229.826C157.038,232.608 158.393,237.083 158.393,238.291L158.08,240.79L157.286,242.519L155.827,244.012L154.727,244.596L153.513,244.901L152.077,244.875L150.521,244.37L149.202,243.455L148.221,242.363C146.742,240.385 144.753,235.065 144.609,233.774C144.569,233.409 144.564,233.048 144.592,232.695Z" style="fill:white;"/>
        </g>
    </g>
</svg>
